<svg xmlns="http://www.w3.org/2000/svg" viewBox="0 0 24 24" fill="#4bffa5">
  <path d="M22.282 9.821a5.985 5.985 0 00-.516-4.911 6.046 6.046 0 00-6.51-2.9A6.065 6.065 0 004.981 4.182a5.985 5.985 0 00-3.998 2.9 6.046 6.046 0 00.743 7.097 5.98 5.98 0 00.511 4.911 6.051 6.051 0 006.515 2.9A5.985 5.985 0 0013.26 24a6.056 6.056 0 005.772-4.206 5.989 5.989 0 003.997-2.9 6.056 6.056 0 00-.747-7.073zM13.26 22.43a4.476 4.476 0 01-2.876-1.04l.141-.081 4.779-2.758a.795.795 0 00.392-.681v-6.737l2.02 1.168a.071.071 0 01.038.052v5.583a4.504 4.504 0 01-4.494 4.494zM3.6 18.304a4.47 4.47 0 01-.535-3.014l.142.085 4.783 2.759a.771.771 0 00.78 0l5.843-3.369v2.332a.08.08 0 01-.033.062l-4.833 2.79A4.499 4.499 0 013.6 18.304zm-1.26-10.408a4.485 4.485 0 012.366-1.973V11.6a.766.766 0 00.388.676l5.815 3.355-2.02 1.168a.076.076 0 01-.071 0L4.1 14.719a4.504 4.504 0 01-.767-6.824zm16.597 3.855L13.104 8.36l2.015-1.168a.076.076 0 01.071 0l4.83 2.787a4.494 4.494 0 01-.676 8.105v-5.663a.78.78 0 00-.392-.672zm2.01-3.023l-.141-.085-4.774-2.782a.776.776 0 00-.785 0L9.41 8.394V6.062a.067.067 0 01.028-.061l4.83-2.787a4.499 4.499 0 016.68 4.66zm-12.66 4.155l-2.02-1.164a.08.08 0 01-.038-.057V9.41a4.499 4.499 0 017.376-3.454l-.142.08-4.778 2.758a.795.795 0 00-.393.681zm1.098-2.365l2.602-1.5 2.607 1.5v2.999l-2.597 1.5-2.607-1.5z"/>
</svg>
